<svg xmlns="http://www.w3.org/2000/svg" xmlns:xlink="http://www.w3.org/1999/xlink" width="90" zoomAndPan="magnify" viewBox="0 0 67.5 30.000001" height="40" preserveAspectRatio="xMidYMid meet" version="1.0"><defs><g/><clipPath id="5e6bb8f41e"><path d="M 64 8 L 66.167969 8 L 66.167969 13 L 64 13 Z M 64 8 " clip-rule="nonzero"/></clipPath><clipPath id="15d8392b42"><path d="M 66 12 L 66.167969 12 L 66.167969 13 L 66 13 Z M 66 12 " clip-rule="nonzero"/></clipPath></defs><g fill="#ebc214" fill-opacity="1"><g transform="translate(1.857312, 12.67298)"><g><path d="M 1.5625 0 L 0.34375 0 C 0.289062 0 0.253906 -0.0078125 0.234375 -0.03125 C 0.210938 -0.0507812 0.203125 -0.0859375 0.203125 -0.140625 L 0.203125 -0.59375 C 0.203125 -0.644531 0.210938 -0.679688 0.234375 -0.703125 C 0.253906 -0.722656 0.289062 -0.734375 0.34375 -0.734375 L 1.390625 -0.734375 C 1.421875 -0.734375 1.441406 -0.742188 1.453125 -0.765625 C 1.472656 -0.785156 1.484375 -0.8125 1.484375 -0.84375 C 1.484375 -0.894531 1.472656 -0.925781 1.453125 -0.9375 C 1.441406 -0.957031 1.421875 -0.972656 1.390625 -0.984375 L 0.796875 -1.0625 C 0.617188 -1.082031 0.472656 -1.140625 0.359375 -1.234375 C 0.253906 -1.328125 0.203125 -1.484375 0.203125 -1.703125 L 0.203125 -2.109375 C 0.203125 -2.335938 0.269531 -2.507812 0.40625 -2.625 C 0.550781 -2.738281 0.75 -2.796875 1 -2.796875 L 2.09375 -2.796875 C 2.144531 -2.796875 2.179688 -2.785156 2.203125 -2.765625 C 2.222656 -2.742188 2.234375 -2.707031 2.234375 -2.65625 L 2.234375 -2.203125 C 2.234375 -2.148438 2.222656 -2.113281 2.203125 -2.09375 C 2.179688 -2.070312 2.144531 -2.0625 2.09375 -2.0625 L 1.1875 -2.0625 C 1.15625 -2.0625 1.128906 -2.046875 1.109375 -2.015625 C 1.085938 -1.992188 1.078125 -1.96875 1.078125 -1.9375 C 1.078125 -1.90625 1.085938 -1.878906 1.109375 -1.859375 C 1.128906 -1.835938 1.15625 -1.820312 1.1875 -1.8125 L 1.765625 -1.734375 C 1.941406 -1.710938 2.085938 -1.65625 2.203125 -1.5625 C 2.316406 -1.46875 2.375 -1.3125 2.375 -1.09375 L 2.375 -0.6875 C 2.375 -0.46875 2.300781 -0.296875 2.15625 -0.171875 C 2.007812 -0.0546875 1.8125 0 1.5625 0 Z M 1.5625 0 "/></g></g></g><g fill="#ebc214" fill-opacity="1"><g transform="translate(4.389631, 12.67298)"><g><path d="M 1.015625 0 L 0.40625 0 C 0.351562 0 0.316406 -0.0078125 0.296875 -0.03125 C 0.273438 -0.0507812 0.265625 -0.0859375 0.265625 -0.140625 L 0.265625 -2.65625 C 0.265625 -2.707031 0.273438 -2.742188 0.296875 -2.765625 C 0.316406 -2.785156 0.351562 -2.796875 0.40625 -2.796875 L 1.015625 -2.796875 C 1.054688 -2.796875 1.085938 -2.785156 1.109375 -2.765625 C 1.140625 -2.742188 1.15625 -2.707031 1.15625 -2.65625 L 1.15625 -1.8125 L 1.796875 -1.8125 L 1.796875 -2.65625 C 1.796875 -2.707031 1.804688 -2.742188 1.828125 -2.765625 C 1.859375 -2.785156 1.894531 -2.796875 1.9375 -2.796875 L 2.546875 -2.796875 C 2.597656 -2.796875 2.632812 -2.785156 2.65625 -2.765625 C 2.675781 -2.742188 2.6875 -2.707031 2.6875 -2.65625 L 2.6875 -0.140625 C 2.6875 -0.0859375 2.675781 -0.0507812 2.65625 -0.03125 C 2.632812 -0.0078125 2.597656 0 2.546875 0 L 1.9375 0 C 1.894531 0 1.859375 -0.0078125 1.828125 -0.03125 C 1.804688 -0.0507812 1.796875 -0.0859375 1.796875 -0.140625 L 1.796875 -1 L 1.15625 -1 L 1.15625 -0.140625 C 1.15625 -0.0859375 1.140625 -0.0507812 1.109375 -0.03125 C 1.085938 -0.0078125 1.054688 0 1.015625 0 Z M 1.015625 0 "/></g></g></g><g fill="#ebc214" fill-opacity="1"><g transform="translate(7.346594, 12.67298)"><g><path d="M 2.640625 -0.734375 C 2.640625 -0.617188 2.617188 -0.507812 2.578125 -0.40625 C 2.546875 -0.3125 2.484375 -0.226562 2.390625 -0.15625 C 2.304688 -0.09375 2.1875 -0.0390625 2.03125 0 C 1.875 0.0390625 1.675781 0.0625 1.4375 0.0625 C 1.195312 0.0625 0.992188 0.0390625 0.828125 0 C 0.671875 -0.0390625 0.546875 -0.09375 0.453125 -0.15625 C 0.367188 -0.226562 0.304688 -0.3125 0.265625 -0.40625 C 0.234375 -0.507812 0.21875 -0.617188 0.21875 -0.734375 L 0.21875 -2.0625 C 0.21875 -2.175781 0.234375 -2.28125 0.265625 -2.375 C 0.304688 -2.476562 0.367188 -2.566406 0.453125 -2.640625 C 0.546875 -2.710938 0.671875 -2.765625 0.828125 -2.796875 C 0.992188 -2.835938 1.195312 -2.859375 1.4375 -2.859375 C 1.675781 -2.859375 1.875 -2.835938 2.03125 -2.796875 C 2.1875 -2.765625 2.304688 -2.710938 2.390625 -2.640625 C 2.484375 -2.566406 2.546875 -2.476562 2.578125 -2.375 C 2.617188 -2.28125 2.640625 -2.175781 2.640625 -2.0625 Z M 1.109375 -0.875 C 1.109375 -0.820312 1.125 -0.773438 1.15625 -0.734375 C 1.195312 -0.703125 1.289062 -0.6875 1.4375 -0.6875 C 1.570312 -0.6875 1.660156 -0.703125 1.703125 -0.734375 C 1.742188 -0.773438 1.765625 -0.820312 1.765625 -0.875 L 1.765625 -1.921875 C 1.765625 -1.972656 1.742188 -2.015625 1.703125 -2.046875 C 1.660156 -2.078125 1.570312 -2.09375 1.4375 -2.09375 C 1.289062 -2.09375 1.195312 -2.078125 1.15625 -2.046875 C 1.125 -2.015625 1.109375 -1.972656 1.109375 -1.921875 Z M 1.109375 -0.875 "/></g></g></g><g fill="#ebc214" fill-opacity="1"><g transform="translate(10.21785, 12.67298)"><g><path d="M 1.015625 0 L 0.40625 0 C 0.351562 0 0.316406 -0.0078125 0.296875 -0.03125 C 0.273438 -0.0507812 0.265625 -0.0859375 0.265625 -0.140625 L 0.265625 -2.65625 C 0.265625 -2.707031 0.273438 -2.742188 0.296875 -2.765625 C 0.316406 -2.785156 0.351562 -2.796875 0.40625 -2.796875 L 1.59375 -2.796875 C 1.945312 -2.796875 2.1875 -2.722656 2.3125 -2.578125 C 2.445312 -2.441406 2.515625 -2.265625 2.515625 -2.046875 L 2.515625 -1.546875 C 2.515625 -1.316406 2.445312 -1.128906 2.3125 -0.984375 C 2.1875 -0.847656 1.945312 -0.78125 1.59375 -0.78125 L 1.15625 -0.78125 L 1.15625 -0.140625 C 1.15625 -0.0859375 1.140625 -0.0507812 1.109375 -0.03125 C 1.085938 -0.0078125 1.054688 0 1.015625 0 Z M 1.140625 -2.078125 L 1.140625 -1.484375 L 1.5 -1.484375 C 1.570312 -1.484375 1.617188 -1.503906 1.640625 -1.546875 C 1.660156 -1.585938 1.671875 -1.628906 1.671875 -1.671875 L 1.671875 -1.890625 C 1.671875 -1.929688 1.660156 -1.972656 1.640625 -2.015625 C 1.617188 -2.054688 1.570312 -2.078125 1.5 -2.078125 Z M 1.140625 -2.078125 "/></g></g></g><g fill="#ebc214" fill-opacity="1"><g transform="translate(12.874836, 12.67298)"><g/></g></g><g fill="#ebc214" fill-opacity="1"><g transform="translate(13.751405, 12.67298)"><g><path d="M 1.015625 0 L 0.40625 0 C 0.351562 0 0.316406 -0.0078125 0.296875 -0.03125 C 0.273438 -0.0507812 0.265625 -0.0859375 0.265625 -0.140625 L 0.265625 -2.65625 C 0.265625 -2.707031 0.273438 -2.742188 0.296875 -2.765625 C 0.316406 -2.785156 0.351562 -2.796875 0.40625 -2.796875 L 1.015625 -2.796875 C 1.054688 -2.796875 1.085938 -2.785156 1.109375 -2.765625 C 1.140625 -2.742188 1.15625 -2.707031 1.15625 -2.65625 L 1.15625 -1.765625 L 1.3125 -1.765625 L 1.703125 -2.671875 C 1.722656 -2.722656 1.75 -2.753906 1.78125 -2.765625 C 1.8125 -2.785156 1.851562 -2.796875 1.90625 -2.796875 L 2.5 -2.796875 C 2.539062 -2.796875 2.566406 -2.785156 2.578125 -2.765625 C 2.597656 -2.742188 2.601562 -2.710938 2.59375 -2.671875 L 2.1875 -1.765625 C 2.332031 -1.753906 2.445312 -1.703125 2.53125 -1.609375 C 2.625 -1.515625 2.671875 -1.390625 2.671875 -1.234375 L 2.671875 -0.140625 C 2.671875 -0.0859375 2.660156 -0.0507812 2.640625 -0.03125 C 2.617188 -0.0078125 2.582031 0 2.53125 0 L 1.9375 0 C 1.882812 0 1.847656 -0.0078125 1.828125 -0.03125 C 1.804688 -0.0507812 1.796875 -0.0859375 1.796875 -0.140625 L 1.796875 -0.90625 C 1.796875 -0.945312 1.785156 -0.976562 1.765625 -1 C 1.742188 -1.019531 1.710938 -1.03125 1.671875 -1.03125 L 1.15625 -1.03125 L 1.15625 -0.140625 C 1.15625 -0.0859375 1.140625 -0.0507812 1.109375 -0.03125 C 1.085938 -0.0078125 1.054688 0 1.015625 0 Z M 1.015625 0 "/></g></g></g><g fill="#ebc214" fill-opacity="1"><g transform="translate(16.657728, 12.67298)"><g><path d="M 0.34375 0 C 0.289062 0 0.253906 -0.0078125 0.234375 -0.03125 C 0.210938 -0.0507812 0.203125 -0.0859375 0.203125 -0.140625 L 0.203125 -0.609375 C 0.203125 -0.648438 0.210938 -0.679688 0.234375 -0.703125 C 0.253906 -0.734375 0.289062 -0.75 0.34375 -0.75 L 0.734375 -0.75 L 0.734375 -2.046875 L 0.34375 -2.046875 C 0.289062 -2.046875 0.253906 -2.054688 0.234375 -2.078125 C 0.210938 -2.097656 0.203125 -2.132812 0.203125 -2.1875 L 0.203125 -2.65625 C 0.203125 -2.707031 0.210938 -2.742188 0.234375 -2.765625 C 0.253906 -2.785156 0.289062 -2.796875 0.34375 -2.796875 L 2 -2.796875 C 2.050781 -2.796875 2.085938 -2.785156 2.109375 -2.765625 C 2.128906 -2.742188 2.140625 -2.707031 2.140625 -2.65625 L 2.140625 -2.1875 C 2.140625 -2.132812 2.128906 -2.097656 2.109375 -2.078125 C 2.085938 -2.054688 2.050781 -2.046875 2 -2.046875 L 1.625 -2.046875 L 1.625 -0.75 L 2 -0.75 C 2.050781 -0.75 2.085938 -0.734375 2.109375 -0.703125 C 2.128906 -0.679688 2.140625 -0.648438 2.140625 -0.609375 L 2.140625 -0.140625 C 2.140625 -0.0859375 2.128906 -0.0507812 2.109375 -0.03125 C 2.085938 -0.0078125 2.050781 0 2 0 Z M 0.34375 0 "/></g></g></g><g fill="#ebc214" fill-opacity="1"><g transform="translate(19.014725, 12.67298)"><g><path d="M 0.984375 0 L 0.40625 0 C 0.351562 0 0.316406 -0.0078125 0.296875 -0.03125 C 0.273438 -0.0507812 0.265625 -0.0859375 0.265625 -0.140625 L 0.265625 -2.65625 C 0.265625 -2.707031 0.273438 -2.742188 0.296875 -2.765625 C 0.316406 -2.785156 0.351562 -2.796875 0.40625 -2.796875 L 1.03125 -2.796875 C 1.070312 -2.796875 1.101562 -2.785156 1.125 -2.765625 C 1.15625 -2.753906 1.1875 -2.726562 1.21875 -2.6875 L 1.5625 -2.046875 C 1.570312 -2.023438 1.582031 -2.007812 1.59375 -2 C 1.601562 -1.988281 1.617188 -1.984375 1.640625 -1.984375 L 1.671875 -1.984375 C 1.679688 -1.984375 1.691406 -1.988281 1.703125 -2 C 1.710938 -2.007812 1.722656 -2.023438 1.734375 -2.046875 L 2.078125 -2.6875 C 2.109375 -2.726562 2.132812 -2.753906 2.15625 -2.765625 C 2.1875 -2.785156 2.222656 -2.796875 2.265625 -2.796875 L 2.890625 -2.796875 C 2.941406 -2.796875 2.976562 -2.785156 3 -2.765625 C 3.019531 -2.742188 3.03125 -2.707031 3.03125 -2.65625 L 3.03125 -0.140625 C 3.03125 -0.0859375 3.019531 -0.0507812 3 -0.03125 C 2.976562 -0.0078125 2.941406 0 2.890625 0 L 2.296875 0 C 2.242188 0 2.207031 -0.0078125 2.1875 -0.03125 C 2.164062 -0.0507812 2.15625 -0.0859375 2.15625 -0.140625 L 2.15625 -1.515625 L 1.921875 -1.078125 C 1.898438 -1.035156 1.875 -1.003906 1.84375 -0.984375 C 1.8125 -0.972656 1.769531 -0.96875 1.71875 -0.96875 L 1.5625 -0.96875 C 1.507812 -0.96875 1.46875 -0.972656 1.4375 -0.984375 C 1.40625 -1.003906 1.378906 -1.035156 1.359375 -1.078125 L 1.125 -1.515625 L 1.125 -0.140625 C 1.125 -0.0859375 1.113281 -0.0507812 1.09375 -0.03125 C 1.070312 -0.0078125 1.035156 0 0.984375 0 Z M 0.984375 0 "/></g></g></g><g fill="#ebc214" fill-opacity="1"><g transform="translate(22.322319, 12.67298)"><g/></g></g><g fill="#ebc214" fill-opacity="1"><g transform="translate(23.198888, 12.67298)"><g><path d="M 2.125 0 L 1.1875 0 C 0.863281 0 0.617188 -0.0625 0.453125 -0.1875 C 0.296875 -0.320312 0.21875 -0.523438 0.21875 -0.796875 L 0.21875 -2 C 0.21875 -2.269531 0.296875 -2.46875 0.453125 -2.59375 C 0.617188 -2.726562 0.863281 -2.796875 1.1875 -2.796875 L 2.125 -2.796875 C 2.175781 -2.796875 2.210938 -2.785156 2.234375 -2.765625 C 2.253906 -2.742188 2.265625 -2.707031 2.265625 -2.65625 L 2.265625 -2.1875 C 2.265625 -2.132812 2.253906 -2.097656 2.234375 -2.078125 C 2.210938 -2.054688 2.175781 -2.046875 2.125 -2.046875 L 1.34375 -2.046875 C 1.269531 -2.046875 1.210938 -2.03125 1.171875 -2 C 1.128906 -1.96875 1.109375 -1.921875 1.109375 -1.859375 L 1.109375 -0.9375 C 1.109375 -0.863281 1.128906 -0.8125 1.171875 -0.78125 C 1.210938 -0.757812 1.269531 -0.75 1.34375 -0.75 L 2.125 -0.75 C 2.175781 -0.75 2.210938 -0.734375 2.234375 -0.703125 C 2.253906 -0.679688 2.265625 -0.648438 2.265625 -0.609375 L 2.265625 -0.140625 C 2.265625 -0.0859375 2.253906 -0.0507812 2.234375 -0.03125 C 2.210938 -0.0078125 2.175781 0 2.125 0 Z M 2.125 0 "/></g></g></g><g fill="#ebc214" fill-opacity="1"><g transform="translate(25.645499, 12.67298)"><g><path d="M 1.453125 0.0625 C 1.210938 0.0625 1.015625 0.0390625 0.859375 0 C 0.703125 -0.0390625 0.578125 -0.09375 0.484375 -0.15625 C 0.398438 -0.226562 0.335938 -0.3125 0.296875 -0.40625 C 0.265625 -0.507812 0.25 -0.617188 0.25 -0.734375 L 0.25 -2.65625 C 0.25 -2.707031 0.257812 -2.742188 0.28125 -2.765625 C 0.300781 -2.785156 0.335938 -2.796875 0.390625 -2.796875 L 1 -2.796875 C 1.050781 -2.796875 1.085938 -2.785156 1.109375 -2.765625 C 1.128906 -2.742188 1.140625 -2.707031 1.140625 -2.65625 L 1.140625 -0.890625 C 1.140625 -0.835938 1.15625 -0.789062 1.1875 -0.75 C 1.226562 -0.71875 1.316406 -0.703125 1.453125 -0.703125 C 1.597656 -0.703125 1.6875 -0.71875 1.71875 -0.75 C 1.757812 -0.789062 1.78125 -0.835938 1.78125 -0.890625 L 1.78125 -2.65625 C 1.78125 -2.707031 1.789062 -2.742188 1.8125 -2.765625 C 1.832031 -2.785156 1.867188 -2.796875 1.921875 -2.796875 L 2.0625 -2.796875 C 2.125 -2.796875 2.164062 -2.804688 2.1875 -2.828125 C 2.207031 -2.847656 2.21875 -2.875 2.21875 -2.90625 L 2.21875 -3 C 2.21875 -3.039062 2.222656 -3.066406 2.234375 -3.078125 C 2.253906 -3.097656 2.285156 -3.109375 2.328125 -3.109375 L 2.765625 -3.109375 C 2.816406 -3.109375 2.851562 -3.097656 2.875 -3.078125 C 2.894531 -3.054688 2.90625 -3.019531 2.90625 -2.96875 L 2.90625 -2.8125 C 2.90625 -2.707031 2.882812 -2.613281 2.84375 -2.53125 C 2.8125 -2.457031 2.75 -2.398438 2.65625 -2.359375 L 2.65625 -0.734375 C 2.65625 -0.617188 2.632812 -0.507812 2.59375 -0.40625 C 2.5625 -0.3125 2.5 -0.226562 2.40625 -0.15625 C 2.320312 -0.09375 2.203125 -0.0390625 2.046875 0 C 1.890625 0.0390625 1.691406 0.0625 1.453125 0.0625 Z M 1.453125 0.0625 "/></g></g></g><g fill="#ebc214" fill-opacity="1"><g transform="translate(28.590781, 12.67298)"><g><path d="M 1.4375 0.0625 C 1.195312 0.0625 0.992188 0.0390625 0.828125 0 C 0.671875 -0.0390625 0.546875 -0.09375 0.453125 -0.15625 C 0.367188 -0.226562 0.304688 -0.3125 0.265625 -0.40625 C 0.234375 -0.507812 0.21875 -0.617188 0.21875 -0.734375 L 0.21875 -2.0625 C 0.21875 -2.175781 0.234375 -2.28125 0.265625 -2.375 C 0.304688 -2.476562 0.367188 -2.566406 0.453125 -2.640625 C 0.546875 -2.710938 0.671875 -2.765625 0.828125 -2.796875 C 0.992188 -2.835938 1.195312 -2.859375 1.4375 -2.859375 C 1.5625 -2.859375 1.671875 -2.851562 1.765625 -2.84375 C 1.867188 -2.832031 1.957031 -2.816406 2.03125 -2.796875 C 2.09375 -2.804688 2.128906 -2.816406 2.140625 -2.828125 C 2.160156 -2.847656 2.171875 -2.875 2.171875 -2.90625 L 2.171875 -3 C 2.171875 -3.039062 2.179688 -3.066406 2.203125 -3.078125 C 2.222656 -3.097656 2.253906 -3.109375 2.296875 -3.109375 L 2.734375 -3.109375 C 2.773438 -3.109375 2.804688 -3.097656 2.828125 -3.078125 C 2.859375 -3.054688 2.875 -3.019531 2.875 -2.96875 L 2.875 -2.8125 C 2.875 -2.707031 2.851562 -2.613281 2.8125 -2.53125 C 2.769531 -2.457031 2.703125 -2.394531 2.609375 -2.34375 C 2.617188 -2.300781 2.625 -2.253906 2.625 -2.203125 C 2.632812 -2.160156 2.640625 -2.113281 2.640625 -2.0625 L 2.640625 -0.734375 C 2.640625 -0.617188 2.617188 -0.507812 2.578125 -0.40625 C 2.546875 -0.3125 2.484375 -0.226562 2.390625 -0.15625 C 2.304688 -0.09375 2.1875 -0.0390625 2.03125 0 C 1.875 0.0390625 1.675781 0.0625 1.4375 0.0625 Z M 1.109375 -0.875 C 1.109375 -0.820312 1.125 -0.773438 1.15625 -0.734375 C 1.195312 -0.703125 1.289062 -0.6875 1.4375 -0.6875 C 1.570312 -0.6875 1.660156 -0.703125 1.703125 -0.734375 C 1.742188 -0.773438 1.765625 -0.820312 1.765625 -0.875 L 1.765625 -1.921875 C 1.765625 -1.972656 1.742188 -2.015625 1.703125 -2.046875 C 1.660156 -2.078125 1.570312 -2.09375 1.4375 -2.09375 C 1.289062 -2.09375 1.195312 -2.078125 1.15625 -2.046875 C 1.125 -2.015625 1.109375 -1.972656 1.109375 -1.921875 Z M 1.109375 -0.875 "/></g></g></g><g fill="#ebc214" fill-opacity="1"><g transform="translate(31.500997, 12.67298)"><g><path d="M 0.984375 0 L 0.40625 0 C 0.351562 0 0.316406 -0.0078125 0.296875 -0.03125 C 0.273438 -0.0507812 0.265625 -0.0859375 0.265625 -0.140625 L 0.265625 -2.65625 C 0.265625 -2.707031 0.273438 -2.742188 0.296875 -2.765625 C 0.316406 -2.785156 0.351562 -2.796875 0.40625 -2.796875 L 0.8125 -2.796875 C 0.863281 -2.796875 0.90625 -2.785156 0.9375 -2.765625 C 0.96875 -2.753906 1.003906 -2.734375 1.046875 -2.703125 L 1.796875 -1.828125 L 1.796875 -2.65625 C 1.796875 -2.707031 1.804688 -2.742188 1.828125 -2.765625 C 1.847656 -2.785156 1.882812 -2.796875 1.9375 -2.796875 L 2.515625 -2.796875 C 2.566406 -2.796875 2.601562 -2.785156 2.625 -2.765625 C 2.644531 -2.742188 2.65625 -2.707031 2.65625 -2.65625 L 2.65625 -0.140625 C 2.65625 -0.0859375 2.644531 -0.0507812 2.625 -0.03125 C 2.601562 -0.0078125 2.566406 0 2.515625 0 L 1.9375 0 C 1.882812 0 1.847656 -0.0078125 1.828125 -0.03125 C 1.804688 -0.0507812 1.796875 -0.0859375 1.796875 -0.140625 L 1.796875 -0.625 L 1.125 -1.421875 L 1.125 -0.140625 C 1.125 -0.0859375 1.113281 -0.0507812 1.09375 -0.03125 C 1.070312 -0.0078125 1.035156 0 0.984375 0 Z M 0.984375 0 "/></g></g></g><g fill="#ebc214" fill-opacity="1"><g transform="translate(34.434587, 12.67298)"><g><path d="M 2.40625 0 L 1.1875 0 C 0.863281 0 0.617188 -0.0625 0.453125 -0.1875 C 0.296875 -0.320312 0.21875 -0.523438 0.21875 -0.796875 L 0.21875 -2 C 0.21875 -2.269531 0.296875 -2.46875 0.453125 -2.59375 C 0.617188 -2.726562 0.863281 -2.796875 1.1875 -2.796875 L 2.15625 -2.796875 C 2.207031 -2.796875 2.242188 -2.785156 2.265625 -2.765625 C 2.285156 -2.742188 2.296875 -2.707031 2.296875 -2.65625 L 2.296875 -2.1875 C 2.296875 -2.132812 2.285156 -2.097656 2.265625 -2.078125 C 2.242188 -2.054688 2.207031 -2.046875 2.15625 -2.046875 L 1.34375 -2.046875 C 1.257812 -2.046875 1.195312 -2.03125 1.15625 -2 C 1.125 -1.96875 1.109375 -1.921875 1.109375 -1.859375 L 1.109375 -0.921875 C 1.109375 -0.859375 1.125 -0.8125 1.15625 -0.78125 C 1.1875 -0.75 1.226562 -0.734375 1.28125 -0.734375 L 1.671875 -0.734375 L 1.671875 -1.34375 C 1.671875 -1.394531 1.679688 -1.429688 1.703125 -1.453125 C 1.722656 -1.472656 1.757812 -1.484375 1.8125 -1.484375 L 2.40625 -1.484375 C 2.457031 -1.484375 2.492188 -1.472656 2.515625 -1.453125 C 2.535156 -1.429688 2.546875 -1.394531 2.546875 -1.34375 L 2.546875 -0.140625 C 2.546875 -0.0859375 2.535156 -0.0507812 2.515625 -0.03125 C 2.492188 -0.0078125 2.457031 0 2.40625 0 Z M 2.40625 0 "/></g></g></g><g fill="#ebc214" fill-opacity="1"><g transform="translate(37.192867, 12.67298)"><g/></g></g><g fill="#ebc214" fill-opacity="1"><g transform="translate(38.069436, 12.67298)"><g><path d="M 0.296875 -1 C 0.242188 -1 0.207031 -1.007812 0.1875 -1.03125 C 0.164062 -1.050781 0.15625 -1.085938 0.15625 -1.140625 L 0.15625 -1.65625 C 0.15625 -1.707031 0.164062 -1.742188 0.1875 -1.765625 C 0.207031 -1.785156 0.242188 -1.796875 0.296875 -1.796875 L 1.34375 -1.796875 C 1.382812 -1.796875 1.414062 -1.785156 1.4375 -1.765625 C 1.46875 -1.742188 1.484375 -1.707031 1.484375 -1.65625 L 1.484375 -1.140625 C 1.484375 -1.085938 1.46875 -1.050781 1.4375 -1.03125 C 1.414062 -1.007812 1.382812 -1 1.34375 -1 Z M 0.296875 -1 "/></g></g></g><g fill="#ebc214" fill-opacity="1"><g transform="translate(39.705705, 12.67298)"><g/></g></g><g fill="#ebc214" fill-opacity="1"><g transform="translate(40.582274, 12.67298)"><g><path d="M 0.984375 0 L 0.40625 0 C 0.351562 0 0.316406 -0.0078125 0.296875 -0.03125 C 0.273438 -0.0507812 0.265625 -0.0859375 0.265625 -0.140625 L 0.265625 -2.65625 C 0.265625 -2.707031 0.273438 -2.742188 0.296875 -2.765625 C 0.316406 -2.785156 0.351562 -2.796875 0.40625 -2.796875 L 0.8125 -2.796875 C 0.863281 -2.796875 0.90625 -2.785156 0.9375 -2.765625 C 0.96875 -2.753906 1.003906 -2.734375 1.046875 -2.703125 L 1.796875 -1.828125 L 1.796875 -2.65625 C 1.796875 -2.707031 1.804688 -2.742188 1.828125 -2.765625 C 1.847656 -2.785156 1.882812 -2.796875 1.9375 -2.796875 L 2.515625 -2.796875 C 2.566406 -2.796875 2.601562 -2.785156 2.625 -2.765625 C 2.644531 -2.742188 2.65625 -2.707031 2.65625 -2.65625 L 2.65625 -0.140625 C 2.65625 -0.0859375 2.644531 -0.0507812 2.625 -0.03125 C 2.601562 -0.0078125 2.566406 0 2.515625 0 L 1.9375 0 C 1.882812 0 1.847656 -0.0078125 1.828125 -0.03125 C 1.804688 -0.0507812 1.796875 -0.0859375 1.796875 -0.140625 L 1.796875 -0.625 L 1.125 -1.421875 L 1.125 -0.140625 C 1.125 -0.0859375 1.113281 -0.0507812 1.09375 -0.03125 C 1.070312 -0.0078125 1.035156 0 0.984375 0 Z M 0.984375 0 "/></g></g></g><g fill="#ebc214" fill-opacity="1"><g transform="translate(43.515864, 12.67298)"><g><path d="M 0.34375 0 C 0.289062 0 0.253906 -0.0078125 0.234375 -0.03125 C 0.210938 -0.0507812 0.203125 -0.0859375 0.203125 -0.140625 L 0.203125 -0.609375 C 0.203125 -0.648438 0.210938 -0.679688 0.234375 -0.703125 C 0.253906 -0.734375 0.289062 -0.75 0.34375 -0.75 L 0.734375 -0.75 L 0.734375 -2.046875 L 0.34375 -2.046875 C 0.289062 -2.046875 0.253906 -2.054688 0.234375 -2.078125 C 0.210938 -2.097656 0.203125 -2.132812 0.203125 -2.1875 L 0.203125 -2.65625 C 0.203125 -2.707031 0.210938 -2.742188 0.234375 -2.765625 C 0.253906 -2.785156 0.289062 -2.796875 0.34375 -2.796875 L 2 -2.796875 C 2.050781 -2.796875 2.085938 -2.785156 2.109375 -2.765625 C 2.128906 -2.742188 2.140625 -2.707031 2.140625 -2.65625 L 2.140625 -2.1875 C 2.140625 -2.132812 2.128906 -2.097656 2.109375 -2.078125 C 2.085938 -2.054688 2.050781 -2.046875 2 -2.046875 L 1.625 -2.046875 L 1.625 -0.75 L 2 -0.75 C 2.050781 -0.75 2.085938 -0.734375 2.109375 -0.703125 C 2.128906 -0.679688 2.140625 -0.648438 2.140625 -0.609375 L 2.140625 -0.140625 C 2.140625 -0.0859375 2.128906 -0.0507812 2.109375 -0.03125 C 2.085938 -0.0078125 2.050781 0 2 0 Z M 0.34375 0 "/></g></g></g><g fill="#ebc214" fill-opacity="1"><g transform="translate(45.872862, 12.67298)"><g><path d="M 2.125 0 L 1.1875 0 C 0.863281 0 0.617188 -0.0625 0.453125 -0.1875 C 0.296875 -0.320312 0.21875 -0.523438 0.21875 -0.796875 L 0.21875 -2 C 0.21875 -2.269531 0.296875 -2.46875 0.453125 -2.59375 C 0.617188 -2.726562 0.863281 -2.796875 1.1875 -2.796875 L 2.125 -2.796875 C 2.175781 -2.796875 2.210938 -2.785156 2.234375 -2.765625 C 2.253906 -2.742188 2.265625 -2.707031 2.265625 -2.65625 L 2.265625 -2.1875 C 2.265625 -2.132812 2.253906 -2.097656 2.234375 -2.078125 C 2.210938 -2.054688 2.175781 -2.046875 2.125 -2.046875 L 1.34375 -2.046875 C 1.269531 -2.046875 1.210938 -2.03125 1.171875 -2 C 1.128906 -1.96875 1.109375 -1.921875 1.109375 -1.859375 L 1.109375 -0.9375 C 1.109375 -0.863281 1.128906 -0.8125 1.171875 -0.78125 C 1.210938 -0.757812 1.269531 -0.75 1.34375 -0.75 L 2.125 -0.75 C 2.175781 -0.75 2.210938 -0.734375 2.234375 -0.703125 C 2.253906 -0.679688 2.265625 -0.648438 2.265625 -0.609375 L 2.265625 -0.140625 C 2.265625 -0.0859375 2.253906 -0.0507812 2.234375 -0.03125 C 2.210938 -0.0078125 2.175781 0 2.125 0 Z M 2.125 0 "/></g></g></g><g fill="#ebc214" fill-opacity="1"><g transform="translate(48.319473, 12.67298)"><g><path d="M 1.015625 0 L 0.40625 0 C 0.351562 0 0.316406 -0.0078125 0.296875 -0.03125 C 0.273438 -0.0507812 0.265625 -0.0859375 0.265625 -0.140625 L 0.265625 -2.65625 C 0.265625 -2.707031 0.273438 -2.742188 0.296875 -2.765625 C 0.316406 -2.785156 0.351562 -2.796875 0.40625 -2.796875 L 1.015625 -2.796875 C 1.054688 -2.796875 1.085938 -2.785156 1.109375 -2.765625 C 1.140625 -2.742188 1.15625 -2.707031 1.15625 -2.65625 L 1.15625 -1.765625 L 1.3125 -1.765625 L 1.703125 -2.671875 C 1.722656 -2.722656 1.75 -2.753906 1.78125 -2.765625 C 1.8125 -2.785156 1.851562 -2.796875 1.90625 -2.796875 L 2.5 -2.796875 C 2.539062 -2.796875 2.566406 -2.785156 2.578125 -2.765625 C 2.597656 -2.742188 2.601562 -2.710938 2.59375 -2.671875 L 2.1875 -1.765625 C 2.332031 -1.753906 2.445312 -1.703125 2.53125 -1.609375 C 2.625 -1.515625 2.671875 -1.390625 2.671875 -1.234375 L 2.671875 -0.140625 C 2.671875 -0.0859375 2.660156 -0.0507812 2.640625 -0.03125 C 2.617188 -0.0078125 2.582031 0 2.53125 0 L 1.9375 0 C 1.882812 0 1.847656 -0.0078125 1.828125 -0.03125 C 1.804688 -0.0507812 1.796875 -0.0859375 1.796875 -0.140625 L 1.796875 -0.90625 C 1.796875 -0.945312 1.785156 -0.976562 1.765625 -1 C 1.742188 -1.019531 1.710938 -1.03125 1.671875 -1.03125 L 1.15625 -1.03125 L 1.15625 -0.140625 C 1.15625 -0.0859375 1.140625 -0.0507812 1.109375 -0.03125 C 1.085938 -0.0078125 1.054688 0 1.015625 0 Z M 1.015625 0 "/></g></g></g><g fill="#ebc214" fill-opacity="1"><g transform="translate(51.225795, 12.67298)"><g/></g></g><g fill="#ebc214" fill-opacity="1"><g transform="translate(52.102364, 12.67298)"><g><path d="M 2.40625 0 L 1.1875 0 C 0.863281 0 0.617188 -0.0625 0.453125 -0.1875 C 0.296875 -0.320312 0.21875 -0.523438 0.21875 -0.796875 L 0.21875 -2 C 0.21875 -2.269531 0.296875 -2.46875 0.453125 -2.59375 C 0.617188 -2.726562 0.863281 -2.796875 1.1875 -2.796875 L 2.15625 -2.796875 C 2.207031 -2.796875 2.242188 -2.785156 2.265625 -2.765625 C 2.285156 -2.742188 2.296875 -2.707031 2.296875 -2.65625 L 2.296875 -2.1875 C 2.296875 -2.132812 2.285156 -2.097656 2.265625 -2.078125 C 2.242188 -2.054688 2.207031 -2.046875 2.15625 -2.046875 L 1.34375 -2.046875 C 1.257812 -2.046875 1.195312 -2.03125 1.15625 -2 C 1.125 -1.96875 1.109375 -1.921875 1.109375 -1.859375 L 1.109375 -0.921875 C 1.109375 -0.859375 1.125 -0.8125 1.15625 -0.78125 C 1.1875 -0.75 1.226562 -0.734375 1.28125 -0.734375 L 1.671875 -0.734375 L 1.671875 -1.34375 C 1.671875 -1.394531 1.679688 -1.429688 1.703125 -1.453125 C 1.722656 -1.472656 1.757812 -1.484375 1.8125 -1.484375 L 2.40625 -1.484375 C 2.457031 -1.484375 2.492188 -1.472656 2.515625 -1.453125 C 2.535156 -1.429688 2.546875 -1.394531 2.546875 -1.34375 L 2.546875 -0.140625 C 2.546875 -0.0859375 2.535156 -0.0507812 2.515625 -0.03125 C 2.492188 -0.0078125 2.457031 0 2.40625 0 Z M 2.40625 0 "/></g></g></g><g fill="#ebc214" fill-opacity="1"><g transform="translate(54.860644, 12.67298)"><g><path d="M 0.34375 0 C 0.289062 0 0.253906 -0.0078125 0.234375 -0.03125 C 0.210938 -0.0507812 0.203125 -0.0859375 0.203125 -0.140625 L 0.203125 -0.609375 C 0.203125 -0.648438 0.210938 -0.679688 0.234375 -0.703125 C 0.253906 -0.734375 0.289062 -0.75 0.34375 -0.75 L 0.734375 -0.75 L 0.734375 -2.046875 L 0.34375 -2.046875 C 0.289062 -2.046875 0.253906 -2.054688 0.234375 -2.078125 C 0.210938 -2.097656 0.203125 -2.132812 0.203125 -2.1875 L 0.203125 -2.65625 C 0.203125 -2.707031 0.210938 -2.742188 0.234375 -2.765625 C 0.253906 -2.785156 0.289062 -2.796875 0.34375 -2.796875 L 2 -2.796875 C 2.050781 -2.796875 2.085938 -2.785156 2.109375 -2.765625 C 2.128906 -2.742188 2.140625 -2.707031 2.140625 -2.65625 L 2.140625 -2.1875 C 2.140625 -2.132812 2.128906 -2.097656 2.109375 -2.078125 C 2.085938 -2.054688 2.050781 -2.046875 2 -2.046875 L 1.625 -2.046875 L 1.625 -0.75 L 2 -0.75 C 2.050781 -0.75 2.085938 -0.734375 2.109375 -0.703125 C 2.128906 -0.679688 2.140625 -0.648438 2.140625 -0.609375 L 2.140625 -0.140625 C 2.140625 -0.0859375 2.128906 -0.0507812 2.109375 -0.03125 C 2.085938 -0.0078125 2.050781 0 2 0 Z M 0.34375 0 "/></g></g></g><g fill="#ebc214" fill-opacity="1"><g transform="translate(57.217642, 12.67298)"><g><path d="M 1.28125 -1.984375 L 1.09375 -1.390625 L 1.71875 -1.390625 L 1.53125 -1.984375 C 1.519531 -2.003906 1.507812 -2.019531 1.5 -2.03125 C 1.488281 -2.039062 1.472656 -2.046875 1.453125 -2.046875 L 1.359375 -2.046875 C 1.335938 -2.046875 1.320312 -2.039062 1.3125 -2.03125 C 1.300781 -2.019531 1.289062 -2.003906 1.28125 -1.984375 Z M 1.0625 -0.140625 C 1.0625 -0.0859375 1.050781 -0.0507812 1.03125 -0.03125 C 1.007812 -0.0078125 0.972656 0 0.921875 0 L 0.34375 0 C 0.300781 0 0.265625 -0.0078125 0.234375 -0.03125 C 0.210938 -0.0507812 0.203125 -0.0859375 0.203125 -0.140625 L 0.203125 -1.171875 C 0.203125 -1.242188 0.210938 -1.332031 0.234375 -1.4375 C 0.265625 -1.539062 0.304688 -1.660156 0.359375 -1.796875 L 0.703125 -2.671875 C 0.710938 -2.710938 0.734375 -2.742188 0.765625 -2.765625 C 0.804688 -2.785156 0.851562 -2.796875 0.90625 -2.796875 L 1.9375 -2.796875 C 1.988281 -2.796875 2.03125 -2.785156 2.0625 -2.765625 C 2.09375 -2.742188 2.117188 -2.710938 2.140625 -2.671875 L 2.484375 -1.796875 C 2.535156 -1.660156 2.570312 -1.539062 2.59375 -1.4375 C 2.613281 -1.332031 2.625 -1.242188 2.625 -1.171875 L 2.625 -0.140625 C 2.625 -0.0859375 2.613281 -0.0507812 2.59375 -0.03125 C 2.570312 -0.0078125 2.535156 0 2.484375 0 L 1.90625 0 C 1.851562 0 1.8125 -0.0078125 1.78125 -0.03125 C 1.757812 -0.0507812 1.75 -0.0859375 1.75 -0.140625 L 1.75 -0.6875 L 1.0625 -0.6875 Z M 2.09375 -3.09375 L 0.734375 -2.921875 C 0.691406 -2.921875 0.660156 -2.929688 0.640625 -2.953125 C 0.617188 -2.972656 0.609375 -3.007812 0.609375 -3.0625 L 0.609375 -3.4375 C 0.609375 -3.476562 0.617188 -3.507812 0.640625 -3.53125 C 0.660156 -3.550781 0.695312 -3.566406 0.75 -3.578125 L 2.109375 -3.734375 C 2.148438 -3.742188 2.179688 -3.734375 2.203125 -3.703125 C 2.222656 -3.679688 2.234375 -3.648438 2.234375 -3.609375 L 2.234375 -3.234375 C 2.234375 -3.179688 2.222656 -3.144531 2.203125 -3.125 C 2.179688 -3.113281 2.144531 -3.101562 2.09375 -3.09375 Z M 2.09375 -3.09375 "/></g></g></g><g fill="#ebc214" fill-opacity="1"><g transform="translate(60.06163, 12.67298)"><g/></g></g><g fill="#ebc214" fill-opacity="1"><g transform="translate(60.9382, 12.67298)"><g><path d="M 1.140625 -2.09375 L 1.140625 -1.609375 L 1.4375 -1.609375 C 1.507812 -1.609375 1.554688 -1.625 1.578125 -1.65625 C 1.597656 -1.6875 1.609375 -1.726562 1.609375 -1.78125 L 1.609375 -1.921875 C 1.609375 -1.972656 1.597656 -2.015625 1.578125 -2.046875 C 1.554688 -2.078125 1.507812 -2.09375 1.4375 -2.09375 Z M 1 0 L 0.40625 0 C 0.351562 0 0.316406 -0.0078125 0.296875 -0.03125 C 0.273438 -0.0507812 0.265625 -0.0859375 0.265625 -0.140625 L 0.265625 -2.65625 C 0.265625 -2.707031 0.273438 -2.742188 0.296875 -2.765625 C 0.316406 -2.785156 0.351562 -2.796875 0.40625 -2.796875 L 1.703125 -2.796875 C 1.992188 -2.796875 2.191406 -2.734375 2.296875 -2.609375 C 2.410156 -2.492188 2.46875 -2.34375 2.46875 -2.15625 L 2.46875 -1.96875 C 2.46875 -1.863281 2.453125 -1.769531 2.421875 -1.6875 C 2.390625 -1.613281 2.332031 -1.5625 2.25 -1.53125 C 2.394531 -1.507812 2.507812 -1.445312 2.59375 -1.34375 C 2.675781 -1.25 2.71875 -1.125 2.71875 -0.96875 L 2.71875 -0.140625 C 2.71875 -0.0859375 2.707031 -0.0507812 2.6875 -0.03125 C 2.664062 -0.0078125 2.628906 0 2.578125 0 L 1.984375 0 C 1.929688 0 1.894531 -0.0078125 1.875 -0.03125 C 1.851562 -0.0507812 1.84375 -0.0859375 1.84375 -0.140625 L 1.84375 -0.734375 C 1.84375 -0.796875 1.832031 -0.835938 1.8125 -0.859375 C 1.789062 -0.890625 1.75 -0.90625 1.6875 -0.90625 L 1.140625 -0.90625 L 1.140625 -0.140625 C 1.140625 -0.0859375 1.128906 -0.0507812 1.109375 -0.03125 C 1.085938 -0.0078125 1.050781 0 1 0 Z M 1 0 "/></g></g></g><g clip-path="url(#5e6bb8f41e)"><g fill="#ebc214" fill-opacity="1"><g transform="translate(63.832829, 12.67298)"><g><path d="M 2.21875 0 L 0.40625 0 C 0.351562 0 0.316406 -0.0078125 0.296875 -0.03125 C 0.273438 -0.0507812 0.265625 -0.0859375 0.265625 -0.140625 L 0.265625 -2.65625 C 0.265625 -2.707031 0.273438 -2.742188 0.296875 -2.765625 C 0.316406 -2.785156 0.351562 -2.796875 0.40625 -2.796875 L 2.21875 -2.796875 C 2.257812 -2.796875 2.289062 -2.785156 2.3125 -2.765625 C 2.34375 -2.742188 2.359375 -2.707031 2.359375 -2.65625 L 2.359375 -2.203125 C 2.359375 -2.148438 2.34375 -2.113281 2.3125 -2.09375 C 2.289062 -2.070312 2.257812 -2.0625 2.21875 -2.0625 L 1.140625 -2.0625 L 1.140625 -1.765625 L 1.90625 -1.765625 C 1.945312 -1.765625 1.976562 -1.753906 2 -1.734375 C 2.019531 -1.710938 2.03125 -1.675781 2.03125 -1.625 L 2.03125 -1.203125 C 2.03125 -1.160156 2.019531 -1.125 2 -1.09375 C 1.976562 -1.070312 1.945312 -1.0625 1.90625 -1.0625 L 1.140625 -1.0625 L 1.140625 -0.734375 L 2.21875 -0.734375 C 2.257812 -0.734375 2.289062 -0.722656 2.3125 -0.703125 C 2.34375 -0.679688 2.359375 -0.644531 2.359375 -0.59375 L 2.359375 -0.140625 C 2.359375 -0.0859375 2.34375 -0.0507812 2.3125 -0.03125 C 2.289062 -0.0078125 2.257812 0 2.21875 0 Z M 1.59375 -2.984375 L 1.046875 -2.90625 C 1.015625 -2.90625 0.992188 -2.910156 0.984375 -2.921875 C 0.972656 -2.929688 0.96875 -2.945312 0.96875 -2.96875 L 0.921875 -3.28125 C 0.921875 -3.300781 0.925781 -3.316406 0.9375 -3.328125 C 0.945312 -3.347656 0.960938 -3.359375 0.984375 -3.359375 L 1.328125 -3.421875 C 1.359375 -3.421875 1.378906 -3.425781 1.390625 -3.4375 C 1.398438 -3.445312 1.40625 -3.460938 1.40625 -3.484375 C 1.40625 -3.503906 1.394531 -3.515625 1.375 -3.515625 C 1.363281 -3.523438 1.347656 -3.53125 1.328125 -3.53125 L 0.828125 -3.53125 C 0.804688 -3.53125 0.785156 -3.535156 0.765625 -3.546875 C 0.753906 -3.566406 0.75 -3.585938 0.75 -3.609375 L 0.75 -3.890625 C 0.75 -3.921875 0.753906 -3.941406 0.765625 -3.953125 C 0.785156 -3.960938 0.804688 -3.96875 0.828125 -3.96875 L 1.484375 -3.96875 C 1.617188 -3.96875 1.722656 -3.929688 1.796875 -3.859375 C 1.867188 -3.796875 1.90625 -3.703125 1.90625 -3.578125 L 1.90625 -3.328125 C 1.90625 -3.210938 1.875 -3.128906 1.8125 -3.078125 C 1.757812 -3.023438 1.6875 -2.992188 1.59375 -2.984375 Z M 1.59375 -2.984375 "/></g></g></g></g><g clip-path="url(#15d8392b42)"><g fill="#ebc214" fill-opacity="1"><g transform="translate(66.372768, 12.67298)"><g/></g></g></g><g fill="#118982" fill-opacity="1"><g transform="translate(4.904462, 19.343304)"><g><path d="M 3.140625 0 L 0.671875 0 C 0.578125 0 0.503906 -0.0195312 0.453125 -0.0625 C 0.410156 -0.101562 0.390625 -0.175781 0.390625 -0.28125 L 0.390625 -1.1875 C 0.390625 -1.289062 0.410156 -1.363281 0.453125 -1.40625 C 0.503906 -1.445312 0.578125 -1.46875 0.671875 -1.46875 L 2.78125 -1.46875 C 2.84375 -1.46875 2.890625 -1.488281 2.921875 -1.53125 C 2.960938 -1.582031 2.984375 -1.640625 2.984375 -1.703125 C 2.984375 -1.785156 2.960938 -1.847656 2.921875 -1.890625 C 2.890625 -1.929688 2.84375 -1.957031 2.78125 -1.96875 L 1.609375 -2.125 C 1.242188 -2.175781 0.945312 -2.296875 0.71875 -2.484375 C 0.5 -2.671875 0.390625 -2.984375 0.390625 -3.421875 L 0.390625 -4.234375 C 0.390625 -4.679688 0.53125 -5.019531 0.8125 -5.25 C 1.101562 -5.488281 1.503906 -5.609375 2.015625 -5.609375 L 4.1875 -5.609375 C 4.289062 -5.609375 4.363281 -5.585938 4.40625 -5.546875 C 4.445312 -5.503906 4.46875 -5.429688 4.46875 -5.328125 L 4.46875 -4.40625 C 4.46875 -4.300781 4.445312 -4.226562 4.40625 -4.1875 C 4.363281 -4.144531 4.289062 -4.125 4.1875 -4.125 L 2.375 -4.125 C 2.3125 -4.125 2.257812 -4.097656 2.21875 -4.046875 C 2.1875 -4.003906 2.171875 -3.953125 2.171875 -3.890625 C 2.171875 -3.828125 2.1875 -3.769531 2.21875 -3.71875 C 2.257812 -3.675781 2.3125 -3.648438 2.375 -3.640625 L 3.546875 -3.484375 C 3.898438 -3.429688 4.1875 -3.3125 4.40625 -3.125 C 4.632812 -2.9375 4.75 -2.625 4.75 -2.1875 L 4.75 -1.375 C 4.75 -0.925781 4.601562 -0.582031 4.3125 -0.34375 C 4.03125 -0.113281 3.640625 0 3.140625 0 Z M 3.140625 0 "/></g></g></g><g fill="#118982" fill-opacity="1"><g transform="translate(9.969098, 19.343304)"><g><path d="M 2.03125 0 L 0.8125 0 C 0.71875 0 0.644531 -0.0195312 0.59375 -0.0625 C 0.550781 -0.101562 0.53125 -0.175781 0.53125 -0.28125 L 0.53125 -5.328125 C 0.53125 -5.429688 0.550781 -5.503906 0.59375 -5.546875 C 0.644531 -5.585938 0.71875 -5.609375 0.8125 -5.609375 L 2.03125 -5.609375 C 2.125 -5.609375 2.191406 -5.585938 2.234375 -5.546875 C 2.285156 -5.503906 2.3125 -5.429688 2.3125 -5.328125 L 2.3125 -3.640625 L 3.609375 -3.640625 L 3.609375 -5.328125 C 3.609375 -5.429688 3.628906 -5.503906 3.671875 -5.546875 C 3.722656 -5.585938 3.796875 -5.609375 3.890625 -5.609375 L 5.09375 -5.609375 C 5.195312 -5.609375 5.269531 -5.585938 5.3125 -5.546875 C 5.351562 -5.503906 5.375 -5.429688 5.375 -5.328125 L 5.375 -0.28125 C 5.375 -0.175781 5.351562 -0.101562 5.3125 -0.0625 C 5.269531 -0.0195312 5.195312 0 5.09375 0 L 3.890625 0 C 3.796875 0 3.722656 -0.0195312 3.671875 -0.0625 C 3.628906 -0.101562 3.609375 -0.175781 3.609375 -0.28125 L 3.609375 -2.015625 L 2.3125 -2.015625 L 2.3125 -0.28125 C 2.3125 -0.175781 2.285156 -0.101562 2.234375 -0.0625 C 2.191406 -0.0195312 2.125 0 2.03125 0 Z M 2.03125 0 "/></g></g></g><g fill="#118982" fill-opacity="1"><g transform="translate(15.883037, 19.343304)"><g><path d="M 5.296875 -1.46875 C 5.296875 -1.226562 5.257812 -1.007812 5.1875 -0.8125 C 5.113281 -0.625 4.988281 -0.457031 4.8125 -0.3125 C 4.632812 -0.175781 4.390625 -0.0703125 4.078125 0 C 3.765625 0.0703125 3.363281 0.109375 2.875 0.109375 C 2.394531 0.109375 1.992188 0.0703125 1.671875 0 C 1.359375 -0.0703125 1.109375 -0.175781 0.921875 -0.3125 C 0.742188 -0.457031 0.617188 -0.625 0.546875 -0.8125 C 0.484375 -1.007812 0.453125 -1.226562 0.453125 -1.46875 L 0.453125 -4.125 C 0.453125 -4.363281 0.484375 -4.582031 0.546875 -4.78125 C 0.617188 -4.976562 0.742188 -5.144531 0.921875 -5.28125 C 1.109375 -5.425781 1.359375 -5.535156 1.671875 -5.609375 C 1.992188 -5.691406 2.394531 -5.734375 2.875 -5.734375 C 3.363281 -5.734375 3.765625 -5.691406 4.078125 -5.609375 C 4.390625 -5.535156 4.632812 -5.425781 4.8125 -5.28125 C 4.988281 -5.144531 5.113281 -4.976562 5.1875 -4.78125 C 5.257812 -4.582031 5.296875 -4.363281 5.296875 -4.125 Z M 2.21875 -1.75 C 2.21875 -1.644531 2.253906 -1.554688 2.328125 -1.484375 C 2.410156 -1.421875 2.59375 -1.390625 2.875 -1.390625 C 3.15625 -1.390625 3.332031 -1.421875 3.40625 -1.484375 C 3.488281 -1.554688 3.53125 -1.644531 3.53125 -1.75 L 3.53125 -3.859375 C 3.53125 -3.953125 3.488281 -4.03125 3.40625 -4.09375 C 3.332031 -4.164062 3.15625 -4.203125 2.875 -4.203125 C 2.59375 -4.203125 2.410156 -4.164062 2.328125 -4.09375 C 2.253906 -4.03125 2.21875 -3.953125 2.21875 -3.859375 Z M 2.21875 -1.75 "/></g></g></g><g fill="#118982" fill-opacity="1"><g transform="translate(21.625548, 19.343304)"><g><path d="M 2.03125 0 L 0.8125 0 C 0.71875 0 0.644531 -0.0195312 0.59375 -0.0625 C 0.550781 -0.101562 0.53125 -0.175781 0.53125 -0.28125 L 0.53125 -5.328125 C 0.53125 -5.429688 0.550781 -5.503906 0.59375 -5.546875 C 0.644531 -5.585938 0.71875 -5.609375 0.8125 -5.609375 L 3.203125 -5.609375 C 3.910156 -5.609375 4.394531 -5.46875 4.65625 -5.1875 C 4.914062 -4.90625 5.046875 -4.539062 5.046875 -4.09375 L 5.046875 -3.09375 C 5.046875 -2.644531 4.914062 -2.28125 4.65625 -2 C 4.394531 -1.71875 3.910156 -1.578125 3.203125 -1.578125 L 2.3125 -1.578125 L 2.3125 -0.28125 C 2.3125 -0.175781 2.285156 -0.101562 2.234375 -0.0625 C 2.191406 -0.0195312 2.125 0 2.03125 0 Z M 2.296875 -4.15625 L 2.296875 -2.984375 L 3 -2.984375 C 3.144531 -2.984375 3.238281 -3.019531 3.28125 -3.09375 C 3.332031 -3.175781 3.359375 -3.265625 3.359375 -3.359375 L 3.359375 -3.78125 C 3.359375 -3.875 3.332031 -3.957031 3.28125 -4.03125 C 3.238281 -4.113281 3.144531 -4.15625 3 -4.15625 Z M 2.296875 -4.15625 "/></g></g></g><g fill="#118982" fill-opacity="1"><g transform="translate(26.939521, 19.343304)"><g><path d="M 1.984375 0 L 0.8125 0 C 0.71875 0 0.644531 -0.0195312 0.59375 -0.0625 C 0.550781 -0.101562 0.53125 -0.175781 0.53125 -0.28125 L 0.53125 -5.328125 C 0.53125 -5.429688 0.550781 -5.503906 0.59375 -5.546875 C 0.644531 -5.585938 0.71875 -5.609375 0.8125 -5.609375 L 2.078125 -5.609375 C 2.160156 -5.609375 2.226562 -5.585938 2.28125 -5.546875 C 2.332031 -5.515625 2.382812 -5.457031 2.4375 -5.375 L 3.140625 -4.109375 C 3.160156 -4.054688 3.179688 -4.019531 3.203125 -4 C 3.222656 -3.976562 3.25 -3.96875 3.28125 -3.96875 L 3.34375 -3.96875 C 3.375 -3.96875 3.398438 -3.976562 3.421875 -4 C 3.441406 -4.019531 3.460938 -4.054688 3.484375 -4.109375 L 4.171875 -5.375 C 4.222656 -5.457031 4.273438 -5.515625 4.328125 -5.546875 C 4.378906 -5.585938 4.445312 -5.609375 4.53125 -5.609375 L 5.796875 -5.609375 C 5.898438 -5.609375 5.972656 -5.585938 6.015625 -5.546875 C 6.054688 -5.503906 6.078125 -5.429688 6.078125 -5.328125 L 6.078125 -0.28125 C 6.078125 -0.175781 6.054688 -0.101562 6.015625 -0.0625 C 5.972656 -0.0195312 5.898438 0 5.796875 0 L 4.59375 0 C 4.5 0 4.425781 -0.0195312 4.375 -0.0625 C 4.332031 -0.101562 4.3125 -0.175781 4.3125 -0.28125 L 4.3125 -3.03125 L 3.859375 -2.171875 C 3.816406 -2.085938 3.757812 -2.023438 3.6875 -1.984375 C 3.625 -1.941406 3.546875 -1.921875 3.453125 -1.921875 L 3.140625 -1.921875 C 3.035156 -1.921875 2.953125 -1.941406 2.890625 -1.984375 C 2.828125 -2.023438 2.769531 -2.085938 2.71875 -2.171875 L 2.265625 -3.03125 L 2.265625 -0.28125 C 2.265625 -0.175781 2.238281 -0.101562 2.1875 -0.0625 C 2.144531 -0.0195312 2.078125 0 1.984375 0 Z M 1.984375 0 "/></g></g></g><g fill="#118982" fill-opacity="1"><g transform="translate(33.554708, 19.343304)"><g><path d="M 0.6875 0 C 0.59375 0 0.519531 -0.0195312 0.46875 -0.0625 C 0.425781 -0.101562 0.40625 -0.175781 0.40625 -0.28125 L 0.40625 -1.203125 C 0.40625 -1.304688 0.425781 -1.378906 0.46875 -1.421875 C 0.519531 -1.460938 0.59375 -1.484375 0.6875 -1.484375 L 1.46875 -1.484375 L 1.46875 -4.109375 L 0.6875 -4.109375 C 0.59375 -4.109375 0.519531 -4.128906 0.46875 -4.171875 C 0.425781 -4.210938 0.40625 -4.285156 0.40625 -4.390625 L 0.40625 -5.328125 C 0.40625 -5.429688 0.425781 -5.503906 0.46875 -5.546875 C 0.519531 -5.585938 0.59375 -5.609375 0.6875 -5.609375 L 4.015625 -5.609375 C 4.109375 -5.609375 4.175781 -5.585938 4.21875 -5.546875 C 4.269531 -5.503906 4.296875 -5.429688 4.296875 -5.328125 L 4.296875 -4.390625 C 4.296875 -4.285156 4.269531 -4.210938 4.21875 -4.171875 C 4.175781 -4.128906 4.109375 -4.109375 4.015625 -4.109375 L 3.265625 -4.109375 L 3.265625 -1.484375 L 4.015625 -1.484375 C 4.109375 -1.484375 4.175781 -1.460938 4.21875 -1.421875 C 4.269531 -1.378906 4.296875 -1.304688 4.296875 -1.203125 L 4.296875 -0.28125 C 4.296875 -0.175781 4.269531 -0.101562 4.21875 -0.0625 C 4.175781 -0.0195312 4.109375 0 4.015625 0 Z M 0.6875 0 "/></g></g></g><g fill="#118982" fill-opacity="1"><g transform="translate(38.268715, 19.343304)"><g><path d="M 1.984375 0 L 0.8125 0 C 0.71875 0 0.644531 -0.0195312 0.59375 -0.0625 C 0.550781 -0.101562 0.53125 -0.175781 0.53125 -0.28125 L 0.53125 -5.328125 C 0.53125 -5.429688 0.550781 -5.503906 0.59375 -5.546875 C 0.644531 -5.585938 0.71875 -5.609375 0.8125 -5.609375 L 1.625 -5.609375 C 1.726562 -5.609375 1.8125 -5.59375 1.875 -5.5625 C 1.945312 -5.53125 2.019531 -5.476562 2.09375 -5.40625 L 3.609375 -3.671875 L 3.609375 -5.328125 C 3.609375 -5.429688 3.628906 -5.503906 3.671875 -5.546875 C 3.710938 -5.585938 3.78125 -5.609375 3.875 -5.609375 L 5.046875 -5.609375 C 5.148438 -5.609375 5.222656 -5.585938 5.265625 -5.546875 C 5.304688 -5.503906 5.328125 -5.429688 5.328125 -5.328125 L 5.328125 -0.28125 C 5.328125 -0.175781 5.304688 -0.101562 5.265625 -0.0625 C 5.222656 -0.0195312 5.148438 0 5.046875 0 L 3.875 0 C 3.78125 0 3.710938 -0.0195312 3.671875 -0.0625 C 3.628906 -0.101562 3.609375 -0.175781 3.609375 -0.28125 L 3.609375 -1.234375 L 2.265625 -2.859375 L 2.265625 -0.28125 C 2.265625 -0.175781 2.242188 -0.101562 2.203125 -0.0625 C 2.160156 -0.0195312 2.085938 0 1.984375 0 Z M 1.984375 0 "/></g></g></g><g fill="#118982" fill-opacity="1"><g transform="translate(44.135894, 19.343304)"><g><path d="M 4.828125 0 L 2.375 0 C 1.71875 0 1.234375 -0.128906 0.921875 -0.390625 C 0.609375 -0.648438 0.453125 -1.050781 0.453125 -1.59375 L 0.453125 -4.015625 C 0.453125 -4.554688 0.609375 -4.957031 0.921875 -5.21875 C 1.234375 -5.476562 1.71875 -5.609375 2.375 -5.609375 L 4.3125 -5.609375 C 4.414062 -5.609375 4.488281 -5.585938 4.53125 -5.546875 C 4.570312 -5.503906 4.59375 -5.429688 4.59375 -5.328125 L 4.59375 -4.390625 C 4.59375 -4.285156 4.570312 -4.210938 4.53125 -4.171875 C 4.488281 -4.128906 4.414062 -4.109375 4.3125 -4.109375 L 2.703125 -4.109375 C 2.535156 -4.109375 2.410156 -4.070312 2.328125 -4 C 2.253906 -3.9375 2.21875 -3.84375 2.21875 -3.71875 L 2.21875 -1.859375 C 2.21875 -1.722656 2.25 -1.625 2.3125 -1.5625 C 2.375 -1.5 2.460938 -1.46875 2.578125 -1.46875 L 3.34375 -1.46875 L 3.34375 -2.6875 C 3.34375 -2.789062 3.363281 -2.863281 3.40625 -2.90625 C 3.445312 -2.945312 3.519531 -2.96875 3.625 -2.96875 L 4.828125 -2.96875 C 4.921875 -2.96875 4.988281 -2.945312 5.03125 -2.90625 C 5.082031 -2.863281 5.109375 -2.789062 5.109375 -2.6875 L 5.109375 -0.28125 C 5.109375 -0.175781 5.082031 -0.101562 5.03125 -0.0625 C 4.988281 -0.0195312 4.921875 0 4.828125 0 Z M 4.828125 0 "/></g></g></g><g fill="#118982" fill-opacity="1"><g transform="translate(49.652455, 19.343304)"><g><path d="M 2.28125 0 L 0.703125 0 C 0.609375 0 0.535156 -0.0195312 0.484375 -0.0625 C 0.441406 -0.101562 0.421875 -0.175781 0.421875 -0.28125 L 0.421875 -1.859375 C 0.421875 -1.960938 0.441406 -2.035156 0.484375 -2.078125 C 0.535156 -2.117188 0.609375 -2.140625 0.703125 -2.140625 L 2.28125 -2.140625 C 2.382812 -2.140625 2.457031 -2.117188 2.5 -2.078125 C 2.539062 -2.035156 2.5625 -1.960938 2.5625 -1.859375 L 2.5625 -0.28125 C 2.5625 -0.175781 2.539062 -0.101562 2.5 -0.0625 C 2.457031 -0.0195312 2.382812 0 2.28125 0 Z M 2.28125 0 "/></g></g></g><g fill="#118982" fill-opacity="1"><g transform="translate(52.644485, 19.343304)"><g><path d="M 3.859375 0 L 1.828125 0 C 1.734375 0 1.648438 -0.015625 1.578125 -0.046875 C 1.515625 -0.0859375 1.46875 -0.15625 1.4375 -0.25 L 0.671875 -2.171875 C 0.617188 -2.285156 0.578125 -2.382812 0.546875 -2.46875 C 0.515625 -2.550781 0.488281 -2.628906 0.46875 -2.703125 C 0.445312 -2.785156 0.429688 -2.867188 0.421875 -2.953125 C 0.421875 -3.046875 0.421875 -3.15625 0.421875 -3.28125 L 0.421875 -5.328125 C 0.421875 -5.429688 0.441406 -5.503906 0.484375 -5.546875 C 0.523438 -5.585938 0.597656 -5.609375 0.703125 -5.609375 L 1.9375 -5.609375 C 2.039062 -5.609375 2.117188 -5.585938 2.171875 -5.546875 C 2.222656 -5.503906 2.25 -5.429688 2.25 -5.328125 L 2.25 -3.1875 C 2.25 -3.132812 2.253906 -3.082031 2.265625 -3.03125 C 2.273438 -2.976562 2.289062 -2.921875 2.3125 -2.859375 L 2.671875 -1.765625 C 2.691406 -1.710938 2.710938 -1.675781 2.734375 -1.65625 C 2.753906 -1.644531 2.785156 -1.640625 2.828125 -1.640625 L 2.90625 -1.640625 C 2.945312 -1.640625 2.976562 -1.644531 3 -1.65625 C 3.019531 -1.675781 3.039062 -1.710938 3.0625 -1.765625 L 3.421875 -2.875 C 3.441406 -2.925781 3.457031 -2.976562 3.46875 -3.03125 C 3.476562 -3.082031 3.484375 -3.132812 3.484375 -3.1875 L 3.484375 -5.328125 C 3.484375 -5.429688 3.503906 -5.503906 3.546875 -5.546875 C 3.597656 -5.585938 3.671875 -5.609375 3.765625 -5.609375 L 4.984375 -5.609375 C 5.085938 -5.609375 5.160156 -5.585938 5.203125 -5.546875 C 5.242188 -5.503906 5.265625 -5.429688 5.265625 -5.328125 L 5.265625 -3.28125 C 5.265625 -3.15625 5.257812 -3.046875 5.25 -2.953125 C 5.25 -2.867188 5.238281 -2.785156 5.21875 -2.703125 C 5.195312 -2.628906 5.171875 -2.550781 5.140625 -2.46875 C 5.109375 -2.382812 5.066406 -2.285156 5.015625 -2.171875 L 4.25 -0.25 C 4.21875 -0.15625 4.164062 -0.0859375 4.09375 -0.046875 C 4.03125 -0.015625 3.953125 0 3.859375 0 Z M 3.859375 0 "/></g></g></g><g fill="#118982" fill-opacity="1"><g transform="translate(58.332461, 19.343304)"><g><path d="M 1.984375 0 L 0.8125 0 C 0.71875 0 0.644531 -0.0195312 0.59375 -0.0625 C 0.550781 -0.101562 0.53125 -0.175781 0.53125 -0.28125 L 0.53125 -5.328125 C 0.53125 -5.429688 0.550781 -5.503906 0.59375 -5.546875 C 0.644531 -5.585938 0.71875 -5.609375 0.8125 -5.609375 L 1.625 -5.609375 C 1.726562 -5.609375 1.8125 -5.59375 1.875 -5.5625 C 1.945312 -5.53125 2.019531 -5.476562 2.09375 -5.40625 L 3.609375 -3.671875 L 3.609375 -5.328125 C 3.609375 -5.429688 3.628906 -5.503906 3.671875 -5.546875 C 3.710938 -5.585938 3.78125 -5.609375 3.875 -5.609375 L 5.046875 -5.609375 C 5.148438 -5.609375 5.222656 -5.585938 5.265625 -5.546875 C 5.304688 -5.503906 5.328125 -5.429688 5.328125 -5.328125 L 5.328125 -0.28125 C 5.328125 -0.175781 5.304688 -0.101562 5.265625 -0.0625 C 5.222656 -0.0195312 5.148438 0 5.046875 0 L 3.875 0 C 3.78125 0 3.710938 -0.0195312 3.671875 -0.0625 C 3.628906 -0.101562 3.609375 -0.175781 3.609375 -0.28125 L 3.609375 -1.234375 L 2.265625 -2.859375 L 2.265625 -0.28125 C 2.265625 -0.175781 2.242188 -0.101562 2.203125 -0.0625 C 2.160156 -0.0195312 2.085938 0 1.984375 0 Z M 1.984375 0 "/></g></g></g></svg>